<svg width="42" height="34" viewBox="0 0 42 34" fill="none" xmlns="http://www.w3.org/2000/svg">
<g id="Group 53">
<path id="Vector" d="M18.2822 4.10479C19.0434 6.1988 16.8484 7.978 16.514 8.23373C16.4865 8.25479 16.454 8.26659 16.4195 8.26806C15.9988 8.28666 13.1726 8.3314 12.4114 6.23739C11.3041 3.19142 13.0243 0.57833 13.3929 0.069166C13.4332 0.0135299 13.5025 -0.0117072 13.5692 0.00517208C14.1788 0.159052 17.1751 1.05882 18.2822 4.10479Z" fill="#FFCA28"/>
<path id="Vector_2" d="M18.2927 4.10578C17.215 1.14069 14.3479 0.209623 13.6341 0.0202637C14.5436 0.649139 15.4788 1.60569 15.9982 3.03469C16.7593 5.1287 14.5643 6.90791 14.23 7.16363C14.2024 7.18469 14.17 7.19649 14.1354 7.19797C13.9851 7.2046 13.5271 7.21403 12.9666 7.12865C14.0735 8.31675 16.0806 8.28447 16.4299 8.26906C16.4645 8.26751 16.497 8.25571 16.5245 8.23473C16.8589 7.979 19.0539 6.1998 18.2927 4.10578Z" fill="#FFB300"/>
<path id="Vector_3" d="M18.5473 12.1579L15.1015 2.67835C14.9855 2.35953 14.633 2.19491 14.3141 2.31078C13.995 2.42664 13.8304 2.77905 13.9463 3.09795L17.3921 12.5775C17.6696 13.3409 18.8252 12.9224 18.5473 12.1579Z" fill="#BF6724"/>
<path id="Vector_4" d="M28.3961 27.8973C28.3961 31.2675 26.0309 33.9999 23.1129 33.9999H5.28516V21.7954H23.1128C26.0309 21.7954 28.3961 24.5278 28.3961 27.8973Z" fill="#8C4815"/>
<path id="Vector_5" d="M5.2837 33.9996C8.20181 33.9996 10.5674 31.2676 10.5674 27.8975C10.5674 24.5274 8.20181 21.7954 5.2837 21.7954C2.36559 21.7954 0 24.5274 0 27.8975C0 31.2676 2.36559 33.9996 5.2837 33.9996Z" fill="#FFE8CF"/>
<path id="Vector_6" d="M35.1146 16.9996C35.1146 20.3698 32.7493 23.1022 29.8313 23.1022H12.0037V10.8977H29.8313C32.7493 10.8977 35.1146 13.6301 35.1146 16.9996Z" fill="#A35418"/>
<path id="Vector_7" d="M41.9566 27.8973C41.9566 31.2675 39.5914 33.9999 36.6733 33.9999H18.8457V21.7954H36.6733C39.5914 21.7954 41.9566 24.5278 41.9566 27.8973Z" fill="#BF6724"/>
<g id="Group">
<path id="Vector_8" d="M24.799 15.4761C24.799 15.1369 24.5238 14.8618 24.1844 14.8618H17.1253C16.7859 14.8618 16.5107 15.1369 16.5107 15.4761C16.5107 15.8153 16.7859 16.0904 17.1253 16.0904H24.1844C24.5238 16.0904 24.799 15.8154 24.799 15.4761Z" fill="#8C4815"/>
<path id="Vector_9" d="M34.9054 18.7124C34.7973 19.1432 34.6481 19.5552 34.4638 19.941H24.1822C23.8429 19.941 23.5676 19.6666 23.5676 19.3267C23.5676 18.9876 23.8429 18.7124 24.1822 18.7124H34.9054Z" fill="#8C4815"/>
<path id="Vector_10" d="M28.0025 16.0904H30.3987C30.7381 16.0904 31.0132 15.8153 31.0132 15.4761C31.0132 15.1369 30.7381 14.8618 30.3987 14.8618H28.0025C27.6631 14.8618 27.3879 15.1369 27.3879 15.4761C27.3879 15.8154 27.6631 16.0904 28.0025 16.0904Z" fill="#8C4815"/>
</g>
<path id="Vector_11" d="M36.7193 25.7693C36.7193 25.4301 36.4442 25.155 36.1048 25.155H23.8033C23.4639 25.155 23.1887 25.4301 23.1887 25.7693C23.1887 26.1085 23.4639 26.3836 23.8033 26.3836H36.1048C36.4443 26.3836 36.7193 26.1086 36.7193 25.7693Z" fill="#A35418"/>
<path id="Vector_12" d="M41.6772 29.8562C41.5502 30.2895 41.3831 30.7015 41.1791 31.0848H33.2466C32.9074 31.0848 32.6321 30.8096 32.6321 30.4705C32.6321 30.1306 32.9074 29.8562 33.2466 29.8562H41.6772Z" fill="#A35418"/>
<path id="Vector_13" d="M28.8533 29.8562H26.8758C26.5364 29.8562 26.2612 30.1313 26.2612 30.4705C26.2612 30.8097 26.5364 31.0848 26.8758 31.0848H28.8533C29.1927 31.0848 29.4679 30.8097 29.4679 30.4705C29.4679 30.1313 29.1927 29.8562 28.8533 29.8562Z" fill="#A35418"/>
<path id="Vector_14" d="M12.0027 23.1019C14.9208 23.1019 17.2864 20.3699 17.2864 16.9998C17.2864 13.6297 14.9208 10.8977 12.0027 10.8977C9.08459 10.8977 6.71899 13.6297 6.71899 16.9998C6.71899 20.3699 9.08459 23.1019 12.0027 23.1019Z" fill="#FFE8CF"/>
<path id="Vector_15" d="M18.8442 33.9996C21.7624 33.9996 24.1279 31.2676 24.1279 27.8975C24.1279 24.5274 21.7624 21.7954 18.8442 21.7954C15.9261 21.7954 13.5605 24.5274 13.5605 27.8975C13.5605 31.2676 15.9261 33.9996 18.8442 33.9996Z" fill="#FFE8CF"/>
<path id="Vector_16" d="M5.2852 23.9055C3.33098 23.9055 1.74121 25.6988 1.74121 27.903C1.74121 28.2423 2.01636 28.5173 2.35575 28.5173C2.69514 28.5173 2.97028 28.2423 2.97028 27.903C2.97028 26.3763 4.00877 25.1341 5.2852 25.1341C6.56163 25.1341 7.60012 26.3763 7.60012 27.903C7.60012 29.4298 6.56163 30.6719 5.2852 30.6719C4.94581 30.6719 4.67066 30.947 4.67066 31.2862C4.67066 31.6254 4.94581 31.9005 5.2852 31.9005C7.23934 31.9005 8.82919 30.1073 8.82919 27.903C8.82919 25.6988 7.23934 23.9055 5.2852 23.9055Z" fill="#F2CDAE"/>
<path id="Vector_17" d="M15.5636 16.9951C15.5636 14.7795 13.9658 12.9771 12.0018 12.9771C10.0378 12.9771 8.43994 14.7795 8.43994 16.9951C8.43994 19.2106 10.0377 21.0131 12.0018 21.0131C12.3412 21.0131 12.6163 20.738 12.6163 20.3988C12.6163 20.0595 12.3412 19.7845 12.0018 19.7845C10.7155 19.7845 9.66901 18.5331 9.66901 16.9951C9.66901 15.457 10.7154 14.2056 12.0018 14.2056C13.2881 14.2056 14.3345 15.457 14.3345 16.9951C14.3345 17.3343 14.6096 17.6093 14.949 17.6093C15.2884 17.6093 15.5636 17.3343 15.5636 16.9951Z" fill="#F2CDAE"/>
<path id="Vector_18" d="M18.8512 23.7314C18.5118 23.7314 18.2366 24.0065 18.2366 24.3457C18.2366 24.685 18.5118 24.96 18.8512 24.96C20.2096 24.96 21.3148 26.2792 21.3148 27.9007C21.3148 29.5222 20.2096 30.8413 18.8512 30.8413C17.4927 30.8413 16.3875 29.5221 16.3875 27.9007C16.3875 27.5615 16.1124 27.2864 15.773 27.2864C15.4336 27.2864 15.1584 27.5615 15.1584 27.9007C15.1584 30.1996 16.815 32.0699 18.8512 32.0699C20.8873 32.0699 22.5439 30.1996 22.5439 27.9007C22.5439 25.6018 20.8873 23.7314 18.8512 23.7314Z" fill="#F2CDAE"/>
</g>
</svg>
